<?xml version="1.0" encoding="UTF-8"?>
<svg width="39px" height="39px" viewBox="0 0 39 39" version="1.1" xmlns="http://www.w3.org/2000/svg" xmlns:xlink="http://www.w3.org/1999/xlink">
    <!-- Generator: Sketch 57.1 (83088) - https://sketch.com -->
    <title>Group 2</title>
    <desc>Created with Sketch.</desc>
    <defs>
        <linearGradient x1="93.5000855%" y1="93.5000855%" x2="13.5000122%" y2="13.5000122%" id="linearGradient-1">
            <stop stop-color="#003CDA" offset="15.9375%"></stop>
            <stop stop-color="#33DFCC" offset="100%"></stop>
        </linearGradient>
        <path d="M0,7.61488203 C0,3.40929273 3.40930203,0 7.61488203,0 L30.4594909,0 C34.6650802,0 38.0743636,3.40930203 38.0743636,7.61488203 L38.0743636,30.4594909 C38.0743636,34.6650802 34.6650802,38.0743636 30.4594909,38.0743636 L7.61488203,38.0743636 C3.40929273,38.0743636 0,34.6650802 0,30.4594909 L0,7.61488203 Z" id="path-2"></path>
    </defs>
    <g id="1.-INSTRUCTIONS" stroke="none" stroke-width="1" fill="none" fill-rule="evenodd">
        <g id="Group-2">
            <path d="M-1.0658141e-14,7.61488203 C-1.0658141e-14,3.40929273 3.40930203,-1.0658141e-14 7.61488203,-1.0658141e-14 L30.4594909,-1.0658141e-14 C34.6650802,-1.0658141e-14 38.0743636,3.40930203 38.0743636,7.61488203 L38.0743636,30.4594909 C38.0743636,34.6650802 34.6650802,38.0743636 30.4594909,38.0743636 L7.61488203,38.0743636 C3.40929273,38.0743636 -1.0658141e-14,34.6650802 -1.0658141e-14,30.4594909 L-1.0658141e-14,7.61488203 Z" id="Path" fill="url(#linearGradient-1)" fill-rule="nonzero"></path>
            <path d="M17.9598706,17.6637914 C17.2112053,17.9330727 16.7031626,18.6871348 16.7565722,19.4950717 C16.7565722,19.6566032 16.8100749,19.8451187 16.8635775,20.0067433 L17.1844075,20.868462 C17.5320353,21.8110396 18.5482139,22.3227112 19.484092,21.9725711 L20.740893,21.5147743 L23.9229529,20.3837743 C24.858831,20.0336342 25.3669668,19.0102909 25.019339,18.0677134 L24.698416,17.2059947 C24.3507882,16.2634171 23.3347027,15.7517455 22.3988246,16.1018856 L18.842339,17.3676193 L18.0668759,17.6369005 L17.9598706,17.6637914 Z" id="Path" fill="#FFFFFF" fill-rule="nonzero"></path>
            <path d="M21.4219123,27.2902717 C21.2063198,27.3714096 20.9907273,27.4797176 20.7752278,27.5337786 C18.7275176,28.2374086 16.7875572,28.1291936 14.8206128,27.1820567 C14.335646,26.9384567 13.8506791,26.6678727 13.4194941,26.3431348 C13.042277,26.0454738 12.6650599,25.7478128 12.3418107,25.3689209 C12.0184684,25.0171059 11.7220171,24.6112299 11.4526428,24.205261 C11.1831754,23.745231 10.940692,23.2310471 10.7520834,22.7169561 C10.1862578,21.1473273 10.1323829,19.6319455 10.5634749,18.1165636 C10.6982086,17.6294567 10.8868171,17.1693337 11.1023166,16.7093037 C11.6951262,15.4645059 12.5034353,14.490292 13.5273369,13.7326011 C14.1470374,13.2996481 14.8206128,12.9478332 15.5211722,12.6772492 C15.7366717,12.5960182 15.9791551,12.5148802 16.1947476,12.4607262 L16.7605733,12.2983572 L15.2248139,7.99564428 L14.7128631,8.15801326 C14.4703797,8.23918845 14.2547872,8.29331455 14.0123037,8.37449904 C12.3687016,8.96983957 10.9676759,9.78168449 9.78214973,10.8641134 C9.70129091,10.9453444 9.62043209,11.0264824 9.51268235,11.1077134 C8.46185262,12.1359882 7.59965005,13.3537091 6.95299348,14.706815 C5.55191198,17.6835176 5.33635668,20.7414513 6.3063369,23.826462 C6.36023037,23.961754 6.38716781,24.097046 6.44106128,24.232338 C7.08770856,26.0995348 8.08463551,27.6690706 9.40493262,28.9680225 C10.4018503,29.9422364 11.5603925,30.7270043 12.7997936,31.3223262 C13.2039947,31.5117722 13.6081027,31.6741412 14.0123037,31.8365102 C14.2817711,31.9448182 14.5242545,32.0259561 14.7936289,32.1071872 C16.7066984,32.6483551 18.7544086,32.7025091 20.694369,32.2424791 C21.2063198,32.1341711 21.7182706,31.9718021 22.2302214,31.7824492 C22.4727048,31.7012182 22.7151882,31.5930032 22.9306877,31.5117722 L23.4157476,31.2953422 L22.2302214,27.9126706 L21.9068791,27.0196877 L21.4219123,27.2902717 Z" id="Path" fill="#FFFFFF" fill-rule="nonzero"></path>
            <g id="Clipped">
                <mask id="mask-3" fill="white">
                    <use xlink:href="#path-2"></use>
                </mask>
                <g id="Path"></g>
                <path d="M23.5585765,4.80306995 L22.4876856,5.18286449 L20.4530952,5.91532075 L18.6862043,6.53926428 L17.1335102,7.08181861 L18.6594064,11.4223091 L18.739707,11.395139 L19.6767016,11.0696567 L25.7269701,8.89940214 L27.7615604,8.16694588 L28.885954,7.7600185 L30.1977465,7.29884406 L34.6150203,5.69829529 L37.6937037,4.58604449 C37.3992064,2.98549572 36.5157144,1.57483957 35.2575176,0.571101497 L33.089031,1.38493765 L23.5585765,4.80306995 Z" id="Path" fill="#FFFFFF" fill-rule="nonzero" mask="url(#mask-3)"></path>
            </g>
        </g>
    </g>
</svg>