<?xml version="1.0" encoding="UTF-8"?>
<svg width="80px" height="80px" viewBox="0 0 80 80" version="1.1" xmlns="http://www.w3.org/2000/svg" xmlns:xlink="http://www.w3.org/1999/xlink">
    <!-- Generator: Sketch 54.1 (76490) - https://sketchapp.com -->
    <title>uniswap</title>
    <desc>Created with Sketch.</desc>
    <g id="Page-1" stroke="none" stroke-width="1" fill="none" fill-rule="evenodd">
        <g id="uniswap">
            <circle id="Oval" fill="#E36BE5" cx="40" cy="40" r="40"></circle>
            <g id="Group-3" transform="translate(18.000000, 22.000000)" fill="#FFFFFF">
                <path d="M36.6940495,8.62982022 C35.9000411,9.38312022 34.6434095,9.35226308 33.887469,8.56116308 L31.8342481,6.4123488 C28.8103573,3.24756308 23.7840889,3.12439165 20.607797,6.13720594 L6.82511094,19.2100917 L19.8952154,19.5303631 C20.991187,19.5572345 21.8578473,20.4643059 21.8310062,21.5562631 C21.8040359,22.6483488 20.8936297,23.5118345 19.797529,23.4849631 L1.93640359,23.0473059 C0.840302856,23.0205631 -0.0263574377,22.1134917 0.000612782932,21.0214059 L0.439878959,3.22570594 C0.46684918,2.13362022 1.37712639,1.27013451 2.47322712,1.29700594 C3.56932786,1.32387737 4.43598815,2.23082022 4.40901793,3.32290594 L4.08756903,16.3450059 L17.8702551,3.27212022 C22.6346929,-1.24703692 30.1740955,-1.06227978 34.7098672,3.68470594 L36.7630882,5.83352022 C37.5190286,6.6247488 37.488187,7.8766488 36.6940495,8.62982022 Z" id="Path"></path>
                <path d="M6.18208411,27.0179774 C6.97609256,26.2648059 8.23272418,26.2955345 8.98866462,27.0867631 L11.0418856,29.2355774 C14.0657764,32.4003631 19.0920448,32.5234059 22.2683367,29.5107202 L36.0510227,16.4377059 L22.9809183,16.1174345 C21.8849466,16.0906917 21.0182863,15.1836202 21.0451275,14.0915345 C21.0720977,12.9995774 21.982504,12.1359631 23.0786047,12.1628345 L40.9397301,12.6004917 C42.0358308,12.6273631 42.9024911,13.5344345 42.8755209,14.6263917 L42.4362547,32.4222202 C42.4092845,33.5143059 41.4990073,34.3777917 40.4029065,34.3509202 C39.3068058,34.3240488 38.4401455,33.4169774 38.4671157,32.3250202 L38.7885646,19.3027917 L25.0058786,32.3758059 C20.2414407,36.8949631 12.7020382,36.7102059 8.16626646,31.9632202 L6.1130455,29.8142774 C5.35710506,29.0231774 5.38794661,27.7711488 6.18208411,27.0179774 Z" id="Path"></path>
            </g>
        </g>
    </g>
</svg>